<?xml version="1.0" encoding="utf-8"?>
<!-- Generator: Adobe Illustrator 24.2.0, SVG Export Plug-In . SVG Version: 6.00 Build 0)  -->
<svg version="1.1" id="Layer_1" xmlns="http://www.w3.org/2000/svg" xmlns:xlink="http://www.w3.org/1999/xlink" x="0px" y="0px"
	 viewBox="0 0 50 50" style="enable-background:new 0 0 50 50;" xml:space="preserve">
<style type="text/css">
	.st0{fill:#EAEAEA;stroke:#FFFFFF;stroke-miterlimit:10;}
</style>
<path class="st0" d="M38.98,46.49h-27.6c-2.13,0-3.85-1.72-3.85-3.85v-27.6c0-2.13,1.72-3.85,3.85-3.85h27.6
	c2.13,0,3.85,1.72,3.85,3.85v27.6C42.82,44.76,41.1,46.49,38.98,46.49z"/>
<path class="st0" d="M31.97,17.7H18.74c-1.08,0-1.95-0.87-1.95-1.95v-5.39c0-1.08,0.87-1.95,1.95-1.95h13.24
	c1.08,0,1.95,0.87,1.95,1.95v5.39C33.92,16.83,33.05,17.7,31.97,17.7z"/>
</svg>
